<svg xmlns="http://www.w3.org/2000/svg"
shape-rendering="geometricPrecision"
viewBox="332 315 355 395">
  <metadata>null</metadata>

<path d="
M 338.497 359.114
C 339.711 349.421 342.044 340.93 348.302 333.166
C 353.316 326.945 359.999 321.637 367.543 318.857
C 389.323 310.834 414.663 318.834 425.406 340.139
C 436.466 362.071 429.014 390.836 406.861 402.712
C 403.561 404.481 399.881 406.124 396.19 406.831
C 396.946 426.918 395.454 447.102 396.329 467.188
C 402.045 468.483 407.212 470.829 411.983 474.303
C 413.508 475.413 414.952 476.672 416.207 478.081
C 416.566 478.485 417.172 479.596 417.683 479.694
C 419.816 479.045 421.924 477.76 423.99 476.882
C 429.168 474.685 434.36 472.482 439.575 470.375
C 451.785 465.44 464.312 461.084 476.421 455.952
C 476.588 453.961 475.802 451.614 475.718 449.57
C 475.52 444.788 475.869 439.78 477.152 435.154
C 482.976 414.135 503.184 399.973 524.829 401.098
C 530.693 401.402 536.234 402.848 541.555 405.308
C 543.042 405.996 544.483 406.765 545.841 407.685
C 546.589 408.191 547.515 409.23 548.414 409.368
C 553.33 404.46 559.597 400.624 565.235 396.586
C 574.335 390.066 583.308 383.356 592.308 376.708
C 592.882 375.72 591.415 373.398 591.074 372.373
C 589.835 368.655 589.624 364.487 589.544 360.6
C 589.316 349.543 592.619 339.517 599.335 330.731
C 602.758 326.254 607.391 322.167 612.329 319.437
C 633.477 307.743 661.692 313.578 674.198 334.993
C 677.368 340.421 679.542 346 680.627 352.209
C 681.619 357.885 681.502 363.523 680.328 369.161
C 678.915 375.947 676.153 382.134 672.023 387.701
C 667.688 393.543 662.004 398.134 655.517 401.387
C 648.547 404.881 640.514 406.376 632.743 405.907
C 622.936 405.316 614.318 401.232 606.49 395.566
C 595.712 403.114 585.023 411.042 574.495 418.944
C 570.903 421.64 567.35 424.569 563.605 427.034
C 574.08 448.292 565.732 474.856 545.665 487.033
C 531.386 495.698 513.625 495.419 499.056 487.668
C 495.419 485.733 492.162 483.141 489.3 480.19
C 488.326 479.186 486.973 478.09 486.283 476.897
C 485.518 476.532 483.64 477.857 482.864 478.174
C 479.324 479.622 475.833 481.194 472.283 482.625
C 458.103 488.342 443.751 493.853 429.759 500.014
C 429.35 502.17 430.622 505.364 430.772 507.63
C 430.955 510.404 430.995 513.226 430.816 515.999
C 430.715 517.565 430.204 519.45 430.46 520.988
C 432.202 521.193 433.996 522.074 435.643 522.666
C 438.638 523.744 441.628 524.833 444.606 525.962
C 453.331 529.27 462.135 532.424 470.787 535.926
C 474.229 537.319 477.743 538.528 481.184 539.923
C 482.067 540.281 484.385 541.641 485.248 541.263
C 488.445 536.544 493.151 532.828 498.057 530.031
C 520.51 517.23 549.812 524.751 562.332 547.636
C 567.88 557.778 569.257 569.248 567.055 580.513
C 566.605 582.818 565.928 585.054 564.998 587.213
C 564.519 588.325 563.79 589.426 563.571 590.618
C 571.271 596.193 578.649 602.858 585.847 609.084
C 588.159 611.083 590.564 612.977 592.94 614.897
C 593.81 615.6 594.561 616.682 595.511 617.24
C 600.554 613.686 606.164 611.289 612.221 610.062
C 620.706 608.344 629.627 608.606 637.848 611.505
C 642.263 613.062 646.348 615.338 650.084 618.145
C 670.664 633.608 674.6 663.825 658.909 684.19
C 656.137 687.788 652.682 691.12 648.883 693.616
C 643.238 697.326 637.042 699.987 630.357 701.121
C 612.435 704.161 593.8 696.183 583.87 680.93
C 577.392 670.977 575.057 658.15 577.385 646.536
C 578.2 642.473 579.788 638.779 581.375 634.993
C 578.117 632.824 575.139 630.006 572.158 627.47
C 566.789 622.903 561.262 618.512 555.872 613.968
C 553.591 612.046 551.516 609.858 549.102 608.101
C 546.447 608.877 543.892 611.034 541.297 612.149
C 535.315 614.72 529.049 616.281 522.519 616.339
C 503.223 616.51 485.148 604.141 478.541 585.972
C 475.781 578.382 475.672 570.733 476.144 562.777
C 464.231 558.693 452.439 554.24 440.64 549.816
C 436.501 548.264 432.332 546.735 428.224 545.107
C 425.542 544.044 422.805 542.687 419.96 542.147
C 414.22 549.442 405.357 555.417 396.198 557.319
C 396.131 570.374 396.243 583.446 396.261 596.506
C 396.266 600.076 396.232 603.645 396.248 607.215
C 396.254 608.391 395.884 610.431 396.459 611.448
C 400.973 611.945 405.543 614.523 409.328 616.893
C 425.137 626.787 433.151 646.189 430.167 664.45
C 426.855 684.716 409.5 700.753 389.146 702.685
C 383.34 703.236 377.36 702.691 371.773 700.992
C 364.789 698.868 358.151 695.238 352.848 690.193
C 332.594 670.926 334.069 636.813 356.043 619.528
C 361.273 615.414 366.959 612.975 373.324 611.382
C 373.231 599.089 373.278 586.793 373.291 574.499
C 373.296 570.751 373.32 567.003 373.361 563.254
C 373.381 561.359 373.625 559.183 373.315 557.32
C 369.874 556.736 366.476 555.086 363.363 553.57
C 338.299 541.367 331.479 507.022 347.19 484.879
C 351.41 478.933 357.249 474.007 363.817 470.848
C 365.959 469.818 368.121 468.734 370.425 468.111
C 371.061 467.939 372.876 467.967 373.315 467.543
C 373.596 447.361 372.744 427.132 373.371 406.954
C 372.322 406.062 369.678 405.911 368.314 405.34
C 364.813 403.874 361.341 402.267 358.211 400.1
C 345.095 391.02 337.366 375.091 338.497 359.114 Z
M 360.929 357.596
C 360.336 361.389 360.548 365.304 361.645 368.992
C 366.648 385.812 387.7 391.088 400.739 380.006
C 402.837 378.223 404.401 375.901 405.678 373.481
C 406.915 371.138 407.917 368.584 408.292 365.946
C 409.816 355.218 404.76 344.245 394.661 339.636
C 380.74 333.283 363.298 342.429 360.929 357.596 Z
M 360.963 509.121
C 360.249 516.467 362.441 524.335 367.848 529.557
C 379.645 540.951 399.943 537.455 406.702 522.438
C 407.703 520.214 408.394 517.92 408.638 515.489
C 409.683 505.073 405.114 494.726 395.397 490.066
C 381.054 483.188 362.51 493.202 360.963 509.121 Z
M 360.97 651.602
C 360.351 655.367 360.531 659.293 361.58 662.967
C 366.18 679.075 385.971 685.508 399.308 675.501
C 401.701 673.705 403.439 671.579 404.992 669.035
C 406.552 666.48 407.688 663.779 408.192 660.817
C 409.995 650.202 405.173 639.551 395.441 634.607
C 381.722 627.637 363.502 636.208 360.97 651.602 Z
M 497.963 445.627
C 497.748 449.347 498.43 453.162 499.812 456.611
C 506.185 472.511 528.122 476.322 539.69 463.629
C 544.169 458.715 546.02 452.533 545.806 445.991
C 545.692 442.521 544.791 439.118 543.197 436.036
C 541.339 432.445 538.418 429.298 535.106 426.998
C 533.803 426.094 532.297 425.589 531.03 424.624
C 526.967 424.05 523.447 422.907 519.239 423.353
C 510.97 424.23 503.061 429.639 499.797 437.37
C 498.627 440.141 498.519 442.745 497.963 445.627 Z
M 498.005 567.622
C 497.076 578.056 502.895 588.433 512.772 592.386
C 526.695 597.96 544.134 588.938 545.598 573.473
C 546.617 562.7 541.428 551.697 530.897 547.572
C 516.311 541.86 499.389 552.076 498.005 567.622 Z
M 598.977 651.616
C 598.457 655.833 598.774 660.299 600.321 664.286
C 601.417 667.113 603.045 669.695 605.094 671.93
C 616.028 683.853 635.781 681.099 643.52 667.138
C 644.999 664.47 645.929 661.49 646.252 658.456
C 647.264 648.957 643.149 639.058 634.442 634.426
C 620.256 626.88 601.037 634.909 598.977 651.616 Z
M 611.974 356.122
C 610.955 366.006 615.539 376.301 624.629 380.945
C 639.052 388.316 657.018 379.055 658.823 362.898
C 660.043 351.981 654.785 341.434 644.403 337.05
C 630.558 331.203 613.514 341.176 611.974 356.122 Z"
opacity="1" fill="rgb(23,130,206)" fill-rule="evenodd" />

</svg>